<?xml version="1.0" encoding="utf-8"?>
<!-- Generator: Adobe Illustrator 19.0.0, SVG Export Plug-In . SVG Version: 6.00 Build 0)  -->
<svg version="1.1" id="圖層_1" xmlns="http://www.w3.org/2000/svg" xmlns:xlink="http://www.w3.org/1999/xlink" x="0px" y="0px"
	 viewBox="0 0 1000 1000" style="enable-background:new 0 0 1000 1000;" xml:space="preserve">
<style type="text/css">
	.st0{fill:#1D8E7D;stroke:#1D817D;stroke-miterlimit:10;}
	.st1{fill:#2CBEC5;}
	.st2{fill:#B5C04C;}
	.st3{fill:#C0D54C;}
	.st4{fill:#A9B445;}
	.st5{fill:#FFFFFF;}
</style>
<g id="XMLID_3_">
	<polygon id="XMLID_155_" class="st0" points="812.8,321.8 812.8,683 500,863.6 500,502.4 812.8,321.8 	"/>
	<polygon id="XMLID_154_" class="st0" points="812.8,321.9 687.6,394.1 312.4,394.1 187.2,321.9 500,141.2 	"/>
	<polygon id="XMLID_153_" class="st0" points="500,723.3 500,863.6 187.2,683 187.2,321.9 312.4,394.1 310,394.1 	"/>
	<polygon id="XMLID_152_" class="st1" points="500,502.4 500,723.3 310,394.1 312.4,394.1 	"/>
	<polygon id="XMLID_151_" class="st1" points="691.4,393.6 503.2,723.8 693.9,612.3 692.6,395.7 	"/>
	<polygon id="XMLID_150_" class="st1" points="687.6,394 500,502.3 312.4,394 	"/>
	<polygon id="XMLID_149_" class="st2" points="187.2,321.8 187.2,683 68.2,751.8 68.2,253.1 	"/>
	<polygon id="XMLID_22_" class="st1" points="931.8,253.1 931.8,751.8 812.8,683 812.8,321.8 	"/>
	<polygon id="XMLID_21_" class="st3" points="931.8,751.8 500,1001.1 68.2,751.8 187.2,683 500,863.6 812.8,683 	"/>
	<polygon id="XMLID_19_" class="st4" points="931.8,253.1 812.8,321.8 500,141.2 187.2,321.8 68.2,253.1 500,3.8 	"/>
	<polygon id="XMLID_18_" class="st5" points="373.9,430.5 373.9,504.9 310,394.1 310.8,394.1 	"/>
	<polygon id="XMLID_4_" class="st5" points="437,394.1 373.9,430.5 310.8,394.1 	"/>
</g>
</svg>
